<?xml version="1.0" encoding="UTF-8" standalone="no"?>
<!-- Created with Inkscape (http://www.inkscape.org/) -->

<svg
   version="1.1"
   id="svg824"
   xml:space="preserve"
   width="84.283234"
   height="84.281914"
   viewBox="0 0 84.283234 84.281912"
   sodipodi:docname="National_Taiwan_Normal_University_logo.svg"
   inkscape:version="1.1.1 (3bf5ae0d25, 2021-09-20)"
   xmlns:inkscape="http://www.inkscape.org/namespaces/inkscape"
   xmlns:sodipodi="http://sodipodi.sourceforge.net/DTD/sodipodi-0.dtd"
   xmlns="http://www.w3.org/2000/svg"
   xmlns:svg="http://www.w3.org/2000/svg"><defs
     id="defs828"><clipPath
       clipPathUnits="userSpaceOnUse"
       id="clipPath888"><path
         d="M 0,841.89 H 595.28 V 0 H 0 Z"
         id="path886" /></clipPath><clipPath
       clipPathUnits="userSpaceOnUse"
       id="clipPath1008"><path
         d="M 0,841.89 H 595.28 V 0 H 0 Z"
         id="path1006" /></clipPath><clipPath
       clipPathUnits="userSpaceOnUse"
       id="clipPath1008-9"><path
         d="M 0,841.89 H 595.28 V 0 H 0 Z"
         id="path1006-2" /></clipPath></defs><sodipodi:namedview
     id="namedview826"
     pagecolor="#ffffff"
     bordercolor="#666666"
     borderopacity="1.0"
     inkscape:pageshadow="2"
     inkscape:pageopacity="0.0"
     inkscape:pagecheckerboard="true"
     showgrid="false"
     inkscape:zoom="2.8827994"
     inkscape:cx="-28.097689"
     inkscape:cy="70.764549"
     inkscape:window-width="3440"
     inkscape:window-height="1411"
     inkscape:window-x="1431"
     inkscape:window-y="-9"
     inkscape:window-maximized="1"
     inkscape:current-layer="g830"
     fit-margin-top="0"
     fit-margin-left="0"
     fit-margin-right="0"
     fit-margin-bottom="0" /><g
     id="g830"
     inkscape:groupmode="layer"
     inkscape:label="A703"
     transform="matrix(1.3333333,0,0,-1.3333333,-335.64552,753.15279)"><g
       id="g1004"
       clip-path="url(#clipPath1008-9)"
       inkscape:label="g1004"
       transform="translate(124.49206,0.90638931)"><g
         id="g1074"
         transform="translate(190.4543,532.468)"><path
           d="m 0,0 c 0.063,-17.454 -14.034,-31.658 -31.49,-31.721 -17.457,-0.064 -31.658,14.034 -31.722,31.49 -0.064,17.455 14.035,31.658 31.49,31.721 C -14.267,31.554 -0.064,17.456 0,0"
           style="fill:#88262f;fill-opacity:1;fill-rule:nonzero;stroke:none"
           id="path1076" /></g><g
         id="g1078"
         transform="translate(150.0919,556.8673)"><path
           d="M 0,0 C 2.77,0.966 5.578,1.474 8.528,1.508 L 8.753,1.506 8.752,1.507 8.753,1.508 V 1.507 L 8.757,1.508 V 1.507 H 8.981 C 11.929,1.474 14.739,0.966 17.508,0 c 0,0 0.146,-0.046 0.146,-0.184 0,-0.076 -0.046,-0.141 -0.112,-0.17 l 10e-4,-0.001 c -2.825,-1.769 -3.739,-6.04 -3.739,-6.04 l -1.273,-4.153 -0.006,-0.02 c -0.082,-0.252 -0.317,-0.436 -0.597,-0.436 l -0.001,-0.002 -3.17,10e-4 -0.002,-10e-4 -0.003,10e-4 -3.17,-10e-4 v 0.002 c -0.281,0 -0.516,0.184 -0.598,0.436 l -0.007,0.019 -1.273,4.154 c 0,0 -0.913,4.271 -3.738,6.04 v 0.001 C -0.1,-0.325 -0.146,-0.26 -0.146,-0.183 -0.146,-0.046 0,0 0,0 m -1.641,-1.34 0.237,-0.196 c 1.898,-1.54 2.539,-2.305 3.374,-5.328 l 1.501,-4.57 c 0.014,-0.065 0.033,-0.128 0.055,-0.19 0.004,-0.013 0.009,-0.027 0.015,-0.04 0.223,-0.571 0.765,-0.981 1.409,-1.007 0.018,-0.003 0.04,-0.008 0.054,-0.007 l 3.75,0.001 3.751,-0.002 c 0.013,0 0.036,0.005 0.054,0.009 0.644,0.025 1.187,0.435 1.409,1.006 0.005,0.014 0.01,0.027 0.014,0.04 0.023,0.061 0.042,0.125 0.055,0.19 l 1.502,4.571 c 0.835,3.022 1.476,3.787 3.373,5.327 l 0.237,0.196 c 0.423,0.284 0.701,0.765 0.701,1.313 0,0.565 -0.296,1.059 -0.741,1.338 C 19.051,1.35 18.989,1.387 18.922,1.414 18.914,1.417 18.906,1.42 18.899,1.423 18.845,1.446 18.789,1.467 18.73,1.485 16.233,2.44 13.698,3.011 11.181,3.229 10.812,4.042 9.864,4.622 8.749,4.622 7.634,4.622 6.686,4.041 6.317,3.228 3.804,3.009 1.272,2.439 -1.222,1.484 -1.28,1.467 -1.336,1.446 -1.391,1.422 -1.398,1.42 -1.406,1.417 -1.414,1.414 -1.48,1.387 -1.542,1.352 -1.6,1.311 -2.046,1.032 -2.341,0.537 -2.342,-0.027 c 0,-0.546 0.278,-1.029 0.701,-1.313"
           style="fill:#ffffff;fill-opacity:1;fill-rule:nonzero;stroke:none"
           id="path1080" /></g><g
         id="g1082"
         transform="translate(133.2398,537.0273)"><path
           d="M 0,0 C 0.549,2.881 1.513,5.568 2.958,8.139 L 3.072,8.333 H 3.071 v 0 l 10e-4,10e-4 v 0.002 h 10e-4 v 10e-4 l 0.112,0.194 c 1.503,2.536 3.348,4.716 5.569,6.631 0,0 0.112,0.104 0.232,0.035 0.066,-0.038 0.1,-0.111 0.092,-0.181 L 9.08,15.015 c 0.119,-3.332 3.361,-6.257 3.361,-6.257 l 2.96,-3.179 0.014,-0.017 C 15.592,5.365 15.633,5.07 15.494,4.828 L 15.496,4.826 13.91,2.08 V 2.078 L 13.908,2.077 12.322,-0.67 12.32,-0.668 c -0.139,-0.244 -0.416,-0.355 -0.675,-0.3 L 11.623,-0.965 7.39,0.01 c 0,0 -4.154,1.345 -7.099,-0.218 H 0.29 C 0.231,-0.25 0.152,-0.256 0.085,-0.219 -0.034,-0.149 0,0 0,0 m -1.934,-0.731 c 0.018,-0.525 0.298,-1.028 0.786,-1.311 0.474,-0.273 1.031,-0.275 1.488,-0.049 l 0.289,0.107 c 2.282,0.872 3.265,1.047 6.299,0.257 l 4.709,-0.985 c 0.064,-0.02 0.128,-0.035 0.193,-0.046 0.014,-0.003 0.027,-0.007 0.042,-0.008 0.606,-0.093 1.232,0.173 1.576,0.717 0.012,0.015 0.028,0.031 0.033,0.043 l 1.875,3.248 1.876,3.248 c 0.007,0.012 0.014,0.033 0.02,0.051 0.3,0.57 0.218,1.245 -0.166,1.723 -0.009,0.011 -0.018,0.023 -0.029,0.033 -0.041,0.05 -0.086,0.098 -0.136,0.143 l -3.208,3.586 c -2.2,2.232 -2.541,3.171 -2.926,5.584 l -0.052,0.304 c -0.034,0.507 -0.312,0.99 -0.787,1.263 C 9.459,17.459 8.884,17.45 8.419,17.204 8.356,17.174 8.293,17.138 8.237,17.093 v 0.001 C 8.231,17.088 8.224,17.083 8.218,17.078 8.17,17.043 8.124,17.004 8.08,16.963 6.005,15.277 4.241,13.368 2.795,11.298 1.906,11.384 0.929,10.854 0.372,9.888 -0.185,8.922 -0.157,7.811 0.363,7.085 -0.705,4.799 -1.475,2.321 -1.897,-0.317 -1.911,-0.375 -1.92,-0.435 -1.927,-0.494 -1.928,-0.502 -1.93,-0.51 -1.931,-0.517 h 0.001 c -0.011,-0.071 -0.011,-0.142 -0.004,-0.214"
           style="fill:#ffffff;fill-opacity:1;fill-rule:nonzero;stroke:none"
           id="path1084" /></g><g
         id="g1086"
         transform="translate(148.6567,522.1128)"><path
           d="m 0,0 -0.014,-0.017 -2.961,-3.178 c 0,0 -3.241,-2.926 -3.362,-6.257 v -10e-4 c 0.008,-0.072 -0.025,-0.144 -0.092,-0.183 -0.12,-0.068 -0.232,0.036 -0.232,0.036 -2.221,1.916 -4.066,4.094 -5.569,6.631 l -0.112,0.195 v 0 l -10e-4,0.002 -10e-4,10e-4 v 10e-4 l -0.112,0.193 c -1.446,2.57 -2.411,5.258 -2.959,8.139 0,0 -0.034,0.149 0.087,0.218 0.065,0.038 0.144,0.031 0.202,-0.01 h 10e-4 c 2.945,-1.562 7.1,-0.218 7.1,-0.218 l 4.233,0.974 0.021,0.005 c 0.259,0.054 0.537,-0.058 0.676,-0.3 l 0.003,0.001 1.585,-2.747 v 0 L -1.506,3.482 0.08,0.736 0.079,0.735 C 0.218,0.493 0.177,0.196 0,0 m 1.642,-0.735 c 0.01,0.01 0.02,0.022 0.029,0.033 0.383,0.478 0.466,1.154 0.166,1.724 C 1.831,1.04 1.824,1.061 1.817,1.072 L -0.06,4.319 -1.933,7.569 C -1.939,7.58 -1.955,7.598 -1.967,7.611 -2.312,8.155 -2.937,8.422 -3.543,8.328 -3.558,8.326 -3.572,8.324 -3.586,8.32 -3.65,8.309 -3.714,8.294 -3.777,8.274 L -8.487,7.288 C -11.521,6.5 -12.505,6.673 -14.786,7.546 l -0.289,0.107 c -0.456,0.225 -1.014,0.224 -1.487,-0.049 -0.489,-0.283 -0.768,-0.786 -0.788,-1.311 -0.006,-0.07 -0.007,-0.142 0.005,-0.214 l -0.002,0.001 c 0.002,-0.008 0.003,-0.016 0.005,-0.024 0.007,-0.06 0.016,-0.118 0.031,-0.177 0.421,-2.641 1.194,-5.122 2.263,-7.41 -0.519,-0.726 -0.547,-1.837 0.011,-2.803 0.556,-0.966 1.533,-1.497 2.422,-1.41 1.446,-2.066 3.207,-3.974 5.28,-5.657 0.043,-0.042 0.09,-0.08 0.138,-0.115 0.006,-0.005 0.012,-0.011 0.019,-0.016 v 0.002 c 0.057,-0.046 0.118,-0.082 0.183,-0.111 0.464,-0.246 1.04,-0.256 1.528,0.026 0.474,0.273 0.754,0.755 0.787,1.264 l 0.051,0.302 c 0.385,2.414 0.727,3.353 2.928,5.585 l 3.208,3.586 c 0.049,0.045 0.093,0.093 0.135,0.143"
           style="fill:#ffffff;fill-opacity:1;fill-rule:nonzero;stroke:none"
           id="path1088" /></g><g
         id="g1090"
         transform="translate(167.6044,507.8382)"><path
           d="m 0,0 c -2.77,-0.965 -5.578,-1.474 -8.528,-1.507 l -0.224,10e-4 v 0 -10e-4 l -0.002,10e-4 -0.002,-10e-4 v 10e-4 H -8.98 c -2.949,0.032 -5.759,0.54 -8.528,1.506 0,0 -0.146,0.046 -0.146,0.184 0,0.076 0.046,0.141 0.111,0.171 v 0.001 c 2.825,1.768 3.739,6.039 3.739,6.039 l 1.273,4.154 0.006,0.019 c 0.083,0.252 0.318,0.436 0.598,0.436 v 0.003 l 3.171,-10e-4 10e-4,10e-4 0.003,-10e-4 3.17,10e-4 v -0.003 c 0.281,0 0.517,-0.184 0.599,-0.436 l 0.007,-0.019 1.272,-4.154 c 0,0 0.913,-4.271 3.738,-6.039 L 0.035,0.355 C 0.1,0.325 0.146,0.26 0.147,0.184 0.145,0.046 0,0 0,0 M 1.642,1.34 1.404,1.536 c -1.897,1.54 -2.539,2.305 -3.373,5.327 l -1.501,4.571 c -0.015,0.065 -0.034,0.128 -0.057,0.19 -0.003,0.013 -0.008,0.028 -0.014,0.041 -0.222,0.571 -0.765,0.979 -1.409,1.006 -0.018,0.003 -0.04,0.008 -0.054,0.008 l -3.75,-0.002 -3.75,0.002 c -0.014,0 -0.036,-0.005 -0.055,-0.009 -0.642,-0.026 -1.187,-0.434 -1.409,-1.005 -0.005,-0.014 -0.01,-0.028 -0.014,-0.042 -0.022,-0.061 -0.042,-0.124 -0.055,-0.189 L -15.54,6.863 C -16.373,3.841 -17.015,3.076 -18.912,1.536 L -19.148,1.34 c -0.425,-0.284 -0.703,-0.765 -0.702,-1.312 0,-0.566 0.296,-1.059 0.742,-1.339 0.057,-0.039 0.119,-0.076 0.187,-0.103 h -0.002 c 0.008,-0.003 0.017,-0.006 0.024,-0.008 0.055,-0.024 0.109,-0.045 0.168,-0.063 2.498,-0.954 5.033,-1.526 7.549,-1.744 0.37,-0.813 1.318,-1.393 2.433,-1.393 1.115,0 2.063,0.581 2.432,1.395 2.512,0.218 5.045,0.788 7.54,1.743 0.057,0.017 0.113,0.038 0.168,0.062 0.007,0.002 0.015,0.005 0.023,0.008 l -10e-4,10e-4 c 0.066,0.026 0.129,0.062 0.188,0.103 0.444,0.279 0.741,0.773 0.741,1.338 0,0.546 -0.278,1.029 -0.7,1.312"
           style="fill:#ffffff;fill-opacity:1;fill-rule:nonzero;stroke:none"
           id="path1092" /></g><g
         id="g1094"
         transform="translate(184.4564,527.6777)"><path
           d="m 0,0 c -0.549,-2.881 -1.512,-5.567 -2.959,-8.138 l -0.112,-0.194 v 0 -0.002 L -3.072,-8.335 H -3.073 L -3.184,-8.53 c -1.503,-2.537 -3.349,-4.716 -5.569,-6.631 0,0 -0.113,-0.105 -0.232,-0.034 -0.067,0.037 -0.1,0.109 -0.092,0.18 H -9.08 c -0.118,3.332 -3.36,6.258 -3.36,6.258 l -2.96,3.179 -0.015,0.016 c -0.177,0.197 -0.218,0.492 -0.078,0.734 l -0.003,0.002 1.587,2.747 v 0.001 l 0.002,0.002 1.584,2.747 0.003,-0.002 c 0.14,0.243 0.417,0.355 0.677,0.301 l 0.02,-0.004 4.233,-0.976 c 0,0 4.155,-1.344 7.1,0.218 h 0.001 C -0.231,0.25 -0.153,0.258 -0.085,0.22 0.034,0.149 0,0 0,0 M 1.936,0.731 C 1.916,1.256 1.637,1.761 1.147,2.043 0.674,2.316 0.117,2.317 -0.339,2.092 L -0.628,1.985 C -2.911,1.111 -3.894,0.938 -6.928,1.728 l -4.709,0.984 c -0.064,0.021 -0.128,0.036 -0.193,0.048 -0.013,0.003 -0.028,0.006 -0.042,0.006 -0.605,0.094 -1.231,-0.172 -1.575,-0.717 -0.013,-0.013 -0.028,-0.031 -0.034,-0.042 l -1.875,-3.248 -1.876,-3.249 c -0.007,-0.011 -0.014,-0.033 -0.02,-0.05 -0.299,-0.57 -0.217,-1.245 0.167,-1.723 0.009,-0.012 0.018,-0.024 0.028,-0.033 0.041,-0.051 0.087,-0.098 0.136,-0.143 l 3.209,-3.586 c 2.198,-2.233 2.54,-3.172 2.926,-5.585 l 0.052,-0.302 c 0.033,-0.509 0.312,-0.991 0.786,-1.264 0.488,-0.283 1.064,-0.273 1.53,-0.027 0.062,0.03 0.125,0.065 0.182,0.111 v -0.002 c 0.006,0.006 0.013,0.012 0.018,0.017 0.049,0.036 0.094,0.073 0.139,0.114 2.076,1.686 3.838,3.595 5.284,5.666 0.889,-0.087 1.866,0.445 2.423,1.41 0.558,0.966 0.529,2.077 0.009,2.804 1.067,2.284 1.839,4.763 2.26,7.4 0.014,0.058 0.024,0.119 0.03,0.177 0.002,0.008 0.004,0.016 0.005,0.025 H 1.931 c 0.01,0.069 0.01,0.141 0.005,0.212"
           style="fill:#ffffff;fill-opacity:1;fill-rule:nonzero;stroke:none"
           id="path1096" /></g><g
         id="g1098"
         transform="translate(169.0398,542.5934)"><path
           d="m 0,0 0.014,0.016 2.961,3.179 c 0,0 3.242,2.925 3.361,6.257 L 6.337,9.453 C 6.329,9.524 6.363,9.596 6.429,9.635 6.548,9.703 6.661,9.6 6.661,9.6 8.882,7.684 10.726,5.506 12.23,2.968 l 0.111,-0.195 v 10e-4 h 0.002 V 2.772 L 12.344,2.771 12.343,2.77 h 10e-4 l 0.112,-0.194 c 1.446,-2.57 2.41,-5.257 2.958,-8.139 0,0 0.035,-0.149 -0.085,-0.217 -0.066,-0.039 -0.146,-0.031 -0.204,0.011 V -5.77 c -2.946,1.562 -7.099,0.217 -7.099,0.217 L 3.791,-6.526 3.771,-6.531 C 3.511,-6.586 3.235,-6.474 3.095,-6.232 L 3.092,-6.233 1.507,-3.486 v 0 l -0.002,0.003 -1.586,2.746 0.002,0.001 C -0.218,-0.493 -0.177,-0.197 0,0 M -1.643,0.734 C -1.652,0.724 -1.662,0.713 -1.67,0.701 -2.054,0.224 -2.137,-0.452 -1.838,-1.022 c 0.007,-0.017 0.014,-0.04 0.021,-0.051 L 0.059,-4.32 1.934,-7.569 c 0.006,-0.012 0.021,-0.028 0.034,-0.043 0.343,-0.544 0.969,-0.81 1.575,-0.717 0.015,0.002 0.029,0.004 0.043,0.009 0.064,0.011 0.128,0.026 0.191,0.046 l 4.71,0.985 c 3.034,0.788 4.017,0.615 6.3,-0.257 l 0.288,-0.108 c 0.457,-0.224 1.013,-0.224 1.488,0.05 0.488,0.282 0.768,0.785 0.787,1.311 0.006,0.07 0.006,0.142 -0.004,0.213 v -0.001 c -0.001,0.01 -0.003,0.017 -0.003,0.024 -0.008,0.061 -0.017,0.118 -0.031,0.178 -0.422,2.64 -1.195,5.121 -2.265,7.41 0.521,0.726 0.549,1.837 -0.009,2.803 C 14.48,5.3 13.503,5.831 12.614,5.743 11.17,7.81 9.408,9.718 7.335,11.401 7.291,11.442 7.245,11.48 7.197,11.516 7.191,11.521 7.184,11.526 7.178,11.531 L 7.177,11.529 C 7.122,11.575 7.06,11.611 6.995,11.641 6.531,11.887 5.955,11.896 5.466,11.615 4.992,11.341 4.714,10.859 4.68,10.351 L 4.629,10.048 C 4.244,7.635 3.903,6.696 1.701,4.463 L -1.506,0.877 C -1.555,0.833 -1.601,0.784 -1.643,0.734"
           style="fill:#ffffff;fill-opacity:1;fill-rule:nonzero;stroke:none"
           id="path1100" /></g><g
         id="g1102"
         transform="translate(168.1268,531.4848)"><path
           d="M 0,0 H -0.346 -1.18 -3.874 v -1.336 h 2.338 0.26 l -0.079,-0.246 c -1.107,-3.466 -4.291,-5.793 -7.923,-5.793 -3.633,0 -6.818,2.327 -7.925,5.793 l -0.078,0.246 h 0.26 2.337 V 0 h -2.694 -0.832 -0.349 c -0.258,-0.005 -0.466,-0.215 -0.466,-0.474 0,-0.008 10e-4,-0.02 0.002,-0.031 0.325,-2.199 1.385,-4.222 3.028,-5.755 1.829,-1.705 4.214,-2.644 6.717,-2.644 2.501,0 4.886,0.939 6.715,2.644 1.641,1.53 2.699,3.548 3.026,5.744 0.002,0.015 0.003,0.031 0.003,0.042 C 0.466,-0.215 0.258,-0.005 0,0"
           style="fill:#ffffff;fill-opacity:1;fill-rule:nonzero;stroke:none"
           id="path1104" /></g><g
         id="g1106"
         transform="translate(168.5924,533.8605)"><path
           d="M 0,0 C 0,0.012 -0.001,0.028 -0.002,0.044 -0.33,2.24 -1.388,4.258 -3.029,5.788 -4.561,7.216 -6.485,8.105 -8.541,8.356 v -1.54 c 3.118,-0.451 5.738,-2.63 6.72,-5.704 l 0.079,-0.248 h -0.259 -2.338 v -1.337 h 2.694 0.833 0.347 C -0.208,-0.468 0,-0.259 0,0"
           style="fill:#ffffff;fill-opacity:1;fill-rule:nonzero;stroke:none"
           id="path1108" /></g><g
         id="g1110"
         transform="translate(149.5672,533.3876)"><path
           d="M 0,0 H 0.35 1.181 3.876 V 1.336 H 1.538 1.279 L 1.357,1.584 C 2.338,4.655 4.953,6.831 8.064,7.286 V 8.827 C 6.014,8.575 4.095,7.687 2.565,6.261 0.921,4.728 -0.138,2.705 -0.464,0.505 -0.465,0.494 -0.465,0.482 -0.465,0.473 -0.465,0.214 -0.258,0.005 0,0"
           style="fill:#ffffff;fill-opacity:1;fill-rule:nonzero;stroke:none"
           id="path1112" /></g><g
         id="g1114"
         transform="translate(155.4136,527.0126)"><path
           d="M 0,0 V -0.922 C 2.059,-0.389 3.048,0.739 3.526,1.71 4.001,0.745 4.982,-0.373 7.013,-0.91 V 0.012 C 4.65,0.724 4.123,2.321 4.004,3.038 H 4.07 6.843 v 0.91 H 3.981 V 3.987 5.205 H 3.091 V 4.805 3.987 3.948 H 0.078 v -0.91 h 2.9 0.068 C 2.923,2.32 2.382,0.703 0,0"
           style="fill:#ffffff;fill-opacity:1;fill-rule:nonzero;stroke:none"
           id="path1116" /></g><g
         id="g1118"
         transform="translate(159.9606,537.8344)"><path
           d="M 0,0 H -1.325 C -1.422,0 -1.5,-0.078 -1.5,-0.175 l 0.004,-3.978 0.768,-0.003 v 3.553 h 0.742 v -4.365 h 0.818 v 4.365 l 0.771,0.001 v -3.552 h 0.743 v 3.979 C 2.346,-0.078 2.266,0 2.17,0 H 0.844 V 0.617 H 2.491 V 1.236 H -1.738 V 0.617 H 0 Z"
           style="fill:#ffffff;fill-opacity:1;fill-rule:nonzero;stroke:none"
           id="path1120" /></g><path
         d="m 157.081,536.665 h -0.962 v 0.818 h 0.962 z m 0,-3.084 h -0.962 v 1.021 h 0.962 z m -0.624,4.561 c 0.355,0.327 0.457,0.915 0.457,0.915 h -0.792 c 0,0 -0.061,-0.588 -0.314,-0.922 h -0.257 c -0.098,0 -0.176,-0.077 -0.176,-0.175 v -4.799 c 0,-0.098 0.078,-0.175 0.176,-0.175 h 2.074 c 0.098,0 0.176,0.077 0.176,0.175 v 1.983 c 0,0.098 -0.078,0.176 -0.176,0.176 l -1.506,10e-4 v 0.638 h 1.506 c 0.098,0 0.176,0.079 0.176,0.175 l -0.002,1.834 c 0,0.097 -0.079,0.175 -0.176,0.175 z"
         style="fill:#ffffff;fill-opacity:1;fill-rule:nonzero;stroke:none"
         id="path1122" /></g></g></svg>
